<svg width="166" height="113" viewBox="0 0 166 113" fill="none" xmlns="http://www.w3.org/2000/svg">
<path d="M35.2434 38.7866L26.5481 70.0068C25.5083 73.7401 26.7194 77.7381 29.6562 80.2672L54.4673 101.634C57.0679 103.874 60.6352 104.624 63.9171 103.62L155.437 75.6461C160.718 74.0317 163.691 68.4415 162.076 63.1601L145.993 10.5629C144.378 5.28143 138.787 2.3087 133.505 3.9231L41.9529 31.9073C38.6888 32.9051 36.1591 35.4987 35.2434 38.7866Z" stroke="#F87700" stroke-width="5"/>
<ellipse rx="7.00123" ry="7.00012" transform="matrix(0.956323 -0.292313 0.292416 0.956291 45.8045 69.4206)" fill="#F87700"/>
<path d="M42.5378 69.88C41.3855 74.9185 35.992 84.6413 23.6366 83.2249C8.19226 81.4543 1.50912 74.9194 2.29754 68.6686C3.08597 62.4178 7.63463 50.9395 11.8716 52.2839C16.1085 53.6283 19.5624 67.0039 28.0309 63.9124" stroke="#F87700" stroke-width="3"/>
<path d="M69.9785 65.3525L66.8801 66.2996L70.1646 77.0406L68.1448 77.658L64.8603 66.917L62.7029 67.5764L62.4151 66.6354L64.362 65.2874L64.1445 64.576C63.8216 63.5202 63.7126 62.6166 63.8175 61.8651C63.9376 61.109 64.2492 60.4867 64.7524 59.9983C65.2556 59.5099 65.9279 59.137 66.7695 58.8798C67.2591 58.7301 67.7169 58.6404 68.1428 58.6106C68.5793 58.5608 68.9593 58.545 69.2828 58.5633L69.2392 60.3083C68.971 60.3066 68.6645 60.3166 68.3198 60.3383C67.9751 60.36 67.6344 60.4224 67.2978 60.5252C66.6245 60.731 66.1898 61.1149 65.9935 61.6768C65.8079 62.2188 65.8624 62.9717 66.1572 63.9356L66.4028 64.7389L69.5013 63.7918L69.9785 65.3525ZM84.2912 65.9716C84.6047 66.9968 84.7454 67.9492 84.7132 68.8291C84.6917 69.6889 84.5127 70.4714 84.1762 71.1766C83.855 71.8771 83.3793 72.4826 82.7491 72.9931C82.1294 73.4837 81.3835 73.8623 80.5114 74.1288C79.7004 74.3767 78.9085 74.4682 78.1358 74.4033C77.3583 74.323 76.6329 74.0847 75.9595 73.6882C75.2862 73.2917 74.6848 72.7477 74.1555 72.0563C73.6367 71.3448 73.2207 70.4765 72.9072 69.4514C72.4908 68.0896 72.3694 66.8719 72.543 65.7983C72.712 64.7093 73.15 63.7891 73.8571 63.0375C74.5596 62.2707 75.4999 61.7072 76.6781 61.3471C77.7951 61.0057 78.8516 60.9588 79.8475 61.2065C80.8541 61.4342 81.7396 61.9498 82.504 62.7535C83.2791 63.5371 83.8748 64.6099 84.2912 65.9716ZM74.9958 68.813C75.2905 69.7769 75.6703 70.581 76.135 71.2253C76.6103 71.8496 77.1743 72.2712 77.8268 72.49C78.4793 72.7088 79.2187 72.692 80.0449 72.4394C80.8712 72.1868 81.4936 71.7874 81.9122 71.2412C82.3308 70.695 82.5548 70.0326 82.5844 69.2539C82.6246 68.4553 82.4974 67.574 82.2026 66.61C81.9032 65.6308 81.5181 64.8367 81.0475 64.2277C80.5768 63.6186 80.0175 63.2124 79.3697 63.0089C78.7325 62.7854 77.9931 62.8022 77.1516 63.0595C75.8969 63.443 75.1128 64.1344 74.7993 65.1337C74.4858 66.133 74.5513 67.3594 74.9958 68.813ZM91.2862 56.8818C91.5157 56.8117 91.7652 56.7521 92.0346 56.7032C92.3147 56.6343 92.5613 56.5924 92.7742 56.5775L93.0902 58.5137C92.8773 58.5286 92.6437 58.5582 92.3895 58.6024C92.1507 58.642 91.9241 58.6945 91.7099 58.76C91.2356 58.905 90.8146 59.1424 90.447 59.4723C90.0794 59.8021 89.7834 60.2021 89.5591 60.6722C89.3301 61.1271 89.1933 61.6373 89.1488 62.203C89.1196 62.7641 89.2009 63.3583 89.3927 63.9856L91.3999 70.5496L89.3801 71.167L85.6184 58.8652L87.2709 58.3601L88.1882 60.5392L88.28 60.5111C88.3998 59.9726 88.5871 59.4636 88.8421 58.9841C89.0923 58.4893 89.4219 58.0623 89.8307 57.7031C90.2349 57.3286 90.72 57.0549 91.2862 56.8818ZM107.208 53.9725L104.109 54.9196L107.394 65.6607L105.374 66.2781L102.09 55.537L99.9321 56.1965L99.6444 55.2555L101.591 53.9075L101.374 53.196C101.051 52.1403 100.942 51.2367 101.047 50.4852C101.167 49.7291 101.479 49.1068 101.982 48.6184C102.485 48.1299 103.157 47.7571 103.999 47.4999C104.488 47.3502 104.946 47.2605 105.372 47.2307C105.809 47.1809 106.189 47.1651 106.512 47.1833L106.468 48.9283C106.2 48.9267 105.894 48.9367 105.549 48.9584C105.204 48.9801 104.864 49.0424 104.527 49.1453C103.854 49.3511 103.419 49.735 103.223 50.2969C103.037 50.8388 103.092 51.5918 103.386 52.5557L103.632 53.359L106.731 52.4119L107.208 53.9725ZM114.619 49.7497C114.848 49.6795 115.098 49.62 115.367 49.5711C115.647 49.5022 115.894 49.4603 116.107 49.4454L116.423 51.3816C116.21 51.3965 115.976 51.426 115.722 51.4703C115.483 51.5098 115.257 51.5624 115.043 51.6278C114.568 51.7728 114.147 52.0103 113.78 52.3401C113.412 52.67 113.116 53.07 112.892 53.5401C112.663 53.9949 112.526 54.5052 112.481 55.0709C112.452 55.6319 112.534 56.2261 112.725 56.8534L114.733 63.4174L112.713 64.0348L108.951 51.7331L110.604 51.228L111.521 53.407L111.613 53.3789C111.733 52.8404 111.92 52.3314 112.175 51.8519C112.425 51.3572 112.755 50.9302 113.163 50.571C113.568 50.1965 114.053 49.9227 114.619 49.7497ZM122.665 47.2903C123.72 46.9676 124.693 46.9211 125.584 47.151C126.489 47.3761 127.269 47.8487 127.924 48.5686C128.59 49.2685 129.094 50.177 129.435 51.2939L129.807 52.5103L121.384 55.0851C121.84 56.4681 122.518 57.4239 123.415 57.9526C124.324 58.4612 125.39 58.5285 126.614 58.1543C127.395 57.9158 128.062 57.6364 128.617 57.3163C129.182 56.9762 129.744 56.5703 130.302 56.0984L130.843 57.8656C130.3 58.3328 129.741 58.7211 129.166 59.0306C128.596 59.3554 127.89 59.6464 127.049 59.9037C125.886 60.2591 124.781 60.3377 123.733 60.1393C122.7 59.9363 121.789 59.4452 120.998 58.6663C120.219 57.8673 119.621 56.7869 119.204 55.4252C118.793 54.0787 118.661 52.8557 118.81 51.7561C118.974 50.6519 119.382 49.7157 120.034 48.9476C120.702 48.1748 121.578 47.6224 122.665 47.2903ZM123.147 48.9498C122.183 49.2444 121.514 49.7919 121.14 50.5923C120.776 51.3727 120.709 52.3301 120.939 53.4645L127.205 51.5492C126.989 50.8454 126.695 50.2661 126.322 49.8114C125.948 49.3566 125.496 49.0517 124.963 48.8966C124.441 48.7216 123.836 48.7393 123.147 48.9498ZM135.62 43.3303C136.676 43.0075 137.649 42.9611 138.539 43.1909C139.444 43.4161 140.224 43.8886 140.88 44.6086C141.545 45.3085 142.049 46.217 142.391 47.3339L142.763 48.5503L134.339 51.1251C134.796 52.5081 135.473 53.4639 136.371 53.9925C137.279 54.5012 138.345 54.5684 139.569 54.1943C140.35 53.9557 141.017 53.6764 141.572 53.3563C142.137 53.0162 142.699 52.6102 143.257 52.1384L143.798 53.9056C143.255 54.3728 142.696 54.7611 142.121 55.0706C141.551 55.3954 140.845 55.6864 140.004 55.9436C138.841 56.2991 137.736 56.3777 136.688 56.1793C135.655 55.9762 134.744 55.4852 133.954 54.7062C133.174 53.9073 132.576 52.8269 132.159 51.4651C131.748 50.1187 131.616 48.8957 131.765 47.7961C131.93 46.6918 132.338 45.7557 132.99 44.9875C133.657 44.2148 134.533 43.6623 135.62 43.3303ZM136.102 44.9897C135.138 45.2844 134.469 45.8319 134.095 46.6323C133.731 47.4127 133.664 48.3701 133.894 49.5045L140.16 47.5892C139.944 46.8854 139.65 46.3061 139.277 45.8513C138.904 45.3966 138.451 45.0917 137.918 44.9366C137.396 44.7616 136.791 44.7793 136.102 44.9897Z" fill="black"/>
</svg>
