<svg width="170" height="48" viewBox="0 0 170 48" fill="none" xmlns="http://www.w3.org/2000/svg">
<path d="M19.9095 3H45.0381C48.423 3 51.167 5.73315 51.167 9.10465V38.8953C51.167 42.2669 48.423 45 45.0381 45H15.1289C11.744 45 9 42.2669 9 38.8953V13.8663L19.9095 3Z" fill="#F87700"/>
<path d="M13.7806 13.8663C17.1655 13.8663 19.9095 11.1331 19.9095 7.76163L19.9095 3L9 13.8663L13.7806 13.8663Z" fill="#FCA554"/>
<path d="M55.4991 33.0349V19.7156H57.484V21.7274H57.6233C57.8671 21.0684 58.3082 20.5336 58.9466 20.1232C59.585 19.7128 60.3047 19.5075 61.1056 19.5075C61.2565 19.5075 61.4452 19.5104 61.6715 19.5162C61.8979 19.522 62.0691 19.5307 62.1852 19.5422V21.6233C62.1155 21.606 61.9559 21.58 61.7063 21.5453C61.4626 21.5048 61.2043 21.4846 60.9315 21.4846C60.2815 21.4846 59.7011 21.6205 59.1904 21.8922C58.6854 22.1581 58.2849 22.5281 57.9889 23.0021C57.6987 23.4704 57.5536 24.0051 57.5536 24.6063V33.0349H55.4991Z" fill="black"/>
<path d="M69.8202 33.3124C68.5317 33.3124 67.4203 33.0291 66.4859 32.4626C65.5572 31.8903 64.8405 31.0925 64.3355 30.0693C63.8364 29.0403 63.5868 27.8436 63.5868 26.4793C63.5868 25.115 63.8364 23.9126 64.3355 22.872C64.8405 21.8257 65.5427 21.0106 66.4423 20.4267C67.3477 19.837 68.4041 19.5422 69.6113 19.5422C70.3077 19.5422 70.9955 19.6578 71.6746 19.8891C72.3536 20.1203 72.9717 20.4961 73.5289 21.0164C74.0861 21.5309 74.5301 22.213 74.8609 23.0628C75.1917 23.9126 75.3571 24.9589 75.3571 26.2018V27.069H65.0494V25.3H73.2677C73.2677 24.5485 73.1168 23.8779 72.815 23.2883C72.519 22.6986 72.0953 22.2332 71.544 21.8922C70.9984 21.5511 70.3542 21.3806 69.6113 21.3806C68.7929 21.3806 68.0848 21.5829 67.487 21.9875C66.895 22.3864 66.4394 22.9067 66.1202 23.5484C65.801 24.1901 65.6414 24.878 65.6414 25.6122V26.7915C65.6414 27.7974 65.8155 28.6501 66.1637 29.3495C66.5178 30.0433 67.0082 30.5722 67.635 30.9364C68.2619 31.2948 68.9903 31.474 69.8202 31.474C70.36 31.474 70.8475 31.3989 71.2828 31.2486C71.7239 31.0925 72.1041 30.8613 72.4233 30.5549C72.7425 30.2427 72.9892 29.8554 73.1633 29.3929L75.1482 29.9479C74.9393 30.6185 74.5881 31.2081 74.0948 31.7168C73.6015 32.2198 72.9921 32.6129 72.2666 32.8961C71.5411 33.1736 70.7256 33.3124 69.8202 33.3124Z" fill="black"/>
<path d="M87.9545 22.6986L86.1089 23.2189C85.9928 22.9125 85.8216 22.6148 85.5952 22.3257C85.3747 22.0309 85.0729 21.7881 84.6898 21.5973C84.3068 21.4066 83.8163 21.3112 83.2185 21.3112C82.4002 21.3112 81.7182 21.4991 81.1727 21.8748C80.6329 22.2448 80.363 22.7159 80.363 23.2883C80.363 23.797 80.5487 24.1987 80.9202 24.4936C81.2916 24.7884 81.872 25.0341 82.6614 25.2306L84.6463 25.7162C85.8419 26.0053 86.7328 26.4475 87.319 27.043C87.9052 27.6326 88.1983 28.3928 88.1983 29.3235C88.1983 30.0866 87.9777 30.7688 87.5366 31.37C87.1013 31.9712 86.4919 32.4452 85.7084 32.7921C84.9249 33.1389 84.0137 33.3124 82.9748 33.3124C81.6109 33.3124 80.482 33.0175 79.5882 32.4279C78.6944 31.8382 78.1285 30.9769 77.8905 29.8438L79.8407 29.3582C80.0264 30.0751 80.3775 30.6127 80.8941 30.9711C81.4164 31.3295 82.0984 31.5087 82.9399 31.5087C83.8976 31.5087 84.6579 31.3064 85.2209 30.9017C85.7897 30.4913 86.0741 29.9999 86.0741 29.4276C86.0741 28.9651 85.9116 28.5778 85.5865 28.2656C85.2615 27.9477 84.7624 27.7107 84.0891 27.5546L81.8604 27.0343C80.6358 26.7452 79.7362 26.2972 79.1616 25.6902C78.5928 25.0774 78.3084 24.3115 78.3084 23.3923C78.3084 22.6408 78.5203 21.976 78.944 21.3979C79.3734 20.8198 79.9567 20.366 80.6938 20.0365C81.4367 19.707 82.2783 19.5422 83.2185 19.5422C84.5418 19.5422 85.5807 19.8313 86.3352 20.4094C87.0956 20.9874 87.6353 21.7505 87.9545 22.6986Z" fill="black"/>
<path d="M99.7183 27.5893V19.7156H101.773V33.0349H99.7183V30.7803H99.579C99.2656 31.4567 98.7781 32.0319 98.1164 32.5059C97.4548 32.9742 96.619 33.2083 95.6092 33.2083C94.7734 33.2083 94.0305 33.0262 93.3805 32.662C92.7304 32.292 92.2197 31.7371 91.8482 30.9971C91.4768 30.2514 91.291 29.312 91.291 28.1789V19.7156H93.3456V28.0402C93.3456 29.0114 93.6184 29.786 94.164 30.3641C94.7154 30.9422 95.4176 31.2312 96.2708 31.2312C96.7816 31.2312 97.301 31.1012 97.8292 30.841C98.3631 30.5809 98.81 30.182 99.1699 29.6444C99.5355 29.1067 99.7183 28.4217 99.7183 27.5893Z" fill="black"/>
<path d="M105.536 33.0349V19.7156H107.521V21.7968H107.695C107.974 21.0857 108.423 20.5336 109.044 20.1405C109.666 19.7417 110.411 19.5422 111.282 19.5422C112.164 19.5422 112.898 19.7417 113.484 20.1405C114.076 20.5336 114.538 21.0857 114.869 21.7968H115.008C115.35 21.1088 115.864 20.5625 116.549 20.1579C117.234 19.7474 118.055 19.5422 119.013 19.5422C120.208 19.5422 121.186 19.9151 121.947 20.6608C122.707 21.4008 123.087 22.5541 123.087 24.1207V33.0349H121.032V24.1207C121.032 23.1379 120.763 22.4356 120.223 22.0136C119.683 21.5916 119.048 21.3806 118.316 21.3806C117.376 21.3806 116.648 21.6638 116.131 22.2303C115.615 22.7911 115.356 23.5021 115.356 24.3635V33.0349H113.267V23.9126C113.267 23.1553 113.02 22.5454 112.527 22.0829C112.034 21.6147 111.398 21.3806 110.62 21.3806C110.086 21.3806 109.587 21.5222 109.123 21.8054C108.664 22.0887 108.293 22.4818 108.008 22.9848C107.73 23.4819 107.591 24.0571 107.591 24.7104V33.0349H105.536Z" fill="black"/>
<path d="M132.45 33.3124C131.162 33.3124 130.05 33.0291 129.116 32.4626C128.187 31.8903 127.47 31.0925 126.965 30.0693C126.466 29.0403 126.217 27.8436 126.217 26.4793C126.217 25.115 126.466 23.9126 126.965 22.872C127.47 21.8257 128.173 21.0106 129.072 20.4267C129.978 19.837 131.034 19.5422 132.241 19.5422C132.938 19.5422 133.625 19.6578 134.305 19.8891C134.984 20.1203 135.602 20.4961 136.159 21.0164C136.716 21.5309 137.16 22.213 137.491 23.0628C137.822 23.9126 137.987 24.9589 137.987 26.2018V27.069H127.679V25.3H135.898C135.898 24.5485 135.747 23.8779 135.445 23.2883C135.149 22.6986 134.725 22.2332 134.174 21.8922C133.628 21.5511 132.984 21.3806 132.241 21.3806C131.423 21.3806 130.715 21.5829 130.117 21.9875C129.525 22.3864 129.069 22.9067 128.75 23.5484C128.431 24.1901 128.271 24.878 128.271 25.6122V26.7915C128.271 27.7974 128.446 28.6501 128.794 29.3495C129.148 30.0433 129.638 30.5722 130.265 30.9364C130.892 31.2948 131.62 31.474 132.45 31.474C132.99 31.474 133.477 31.3989 133.913 31.2486C134.354 31.0925 134.734 30.8613 135.053 30.5549C135.372 30.2427 135.619 29.8554 135.793 29.3929L137.778 29.9479C137.569 30.6185 137.218 31.2081 136.725 31.7168C136.231 32.2198 135.622 32.6129 134.897 32.8961C134.171 33.1736 133.356 33.3124 132.45 33.3124Z" fill="black"/>
<path d="M141.113 33.1043C140.898 33.1043 140.714 33.0277 140.56 32.8745C140.406 32.7213 140.329 32.5377 140.329 32.3238C140.329 32.1099 140.406 31.9264 140.56 31.7732C140.714 31.62 140.898 31.5434 141.113 31.5434C141.327 31.5434 141.512 31.62 141.665 31.7732C141.819 31.9264 141.896 32.1099 141.896 32.3238C141.896 32.4655 141.86 32.5955 141.787 32.714C141.718 32.8326 141.623 32.9279 141.504 33.0002C141.388 33.0696 141.258 33.1043 141.113 33.1043Z" fill="black"/>
<path d="M146.456 33.1736C145.852 33.1736 145.323 33.0305 144.867 32.7444C144.414 32.4582 144.06 32.0579 143.805 31.5434C143.552 31.0289 143.426 30.4277 143.426 29.7398C143.426 29.046 143.552 28.4405 143.805 27.9231C144.06 27.4057 144.414 27.0039 144.867 26.7178C145.323 26.4316 145.852 26.2886 146.456 26.2886C147.059 26.2886 147.588 26.4316 148.04 26.7178C148.496 27.0039 148.85 27.4057 149.102 27.9231C149.358 28.4405 149.485 29.046 149.485 29.7398C149.485 30.4277 149.358 31.0289 149.102 31.5434C148.85 32.0579 148.496 32.4582 148.04 32.7444C147.588 33.0305 147.059 33.1736 146.456 33.1736ZM146.456 32.2545C146.914 32.2545 147.292 32.1374 147.588 31.9033C147.884 31.6691 148.103 31.3613 148.245 30.9798C148.387 30.5982 148.458 30.1849 148.458 29.7398C148.458 29.2946 148.387 28.8798 148.245 28.4954C148.103 28.111 147.884 27.8003 147.588 27.5632C147.292 27.3262 146.914 27.2077 146.456 27.2077C145.997 27.2077 145.62 27.3262 145.324 27.5632C145.028 27.8003 144.809 28.111 144.667 28.4954C144.525 28.8798 144.453 29.2946 144.453 29.7398C144.453 30.1849 144.525 30.5982 144.667 30.9798C144.809 31.3613 145.028 31.6691 145.324 31.9033C145.62 32.1374 145.997 32.2545 146.456 32.2545Z" fill="black"/>
<path d="M151.054 33.0349V26.3753H152.046V27.3811H152.116C152.238 27.0516 152.458 26.7843 152.777 26.579C153.097 26.3738 153.456 26.2712 153.857 26.2712C153.932 26.2712 154.027 26.2727 154.14 26.2755C154.253 26.2784 154.339 26.2828 154.397 26.2886V27.3291C154.362 27.3204 154.282 27.3074 154.157 27.2901C154.035 27.2699 153.906 27.2597 153.77 27.2597C153.445 27.2597 153.155 27.3277 152.899 27.4635C152.647 27.5965 152.446 27.7815 152.298 28.0185C152.153 28.2526 152.081 28.52 152.081 28.8206V33.0349H151.054Z" fill="black"/>
<path d="M158.11 35.671C157.613 35.671 157.187 35.6074 156.83 35.4802C156.473 35.3559 156.175 35.1912 155.938 34.9859C155.702 34.7836 155.515 34.5668 155.376 34.3356L156.194 33.7633C156.287 33.8847 156.405 34.0234 156.547 34.1795C156.689 34.3385 156.884 34.4758 157.13 34.5914C157.38 34.7099 157.706 34.7692 158.11 34.7692C158.649 34.7692 159.095 34.6391 159.446 34.3789C159.797 34.1188 159.973 33.7113 159.973 33.1563V31.8035H159.886C159.81 31.9249 159.703 32.0753 159.564 32.2545C159.427 32.4308 159.23 32.5883 158.972 32.7271C158.716 32.8629 158.371 32.9308 157.936 32.9308C157.396 32.9308 156.911 32.8036 156.482 32.5493C156.055 32.2949 155.717 31.9249 155.467 31.4394C155.221 30.9538 155.097 30.3641 155.097 29.6704C155.097 28.9882 155.218 28.3942 155.459 27.8884C155.7 27.3797 156.035 26.9866 156.464 26.7091C156.894 26.4287 157.39 26.2886 157.953 26.2886C158.388 26.2886 158.734 26.3608 158.989 26.5053C159.247 26.647 159.445 26.8088 159.581 26.9909C159.72 27.1701 159.828 27.3176 159.903 27.4332H160.008V26.3753H161V33.2257C161 33.798 160.869 34.2633 160.608 34.6217C160.35 34.9831 160.002 35.2475 159.564 35.4152C159.128 35.5857 158.644 35.671 158.11 35.671ZM158.075 32.0117C158.487 32.0117 158.835 31.9177 159.12 31.7298C159.404 31.542 159.62 31.2717 159.768 30.9191C159.916 30.5664 159.99 30.1444 159.99 29.653C159.99 29.1732 159.918 28.7498 159.772 28.3827C159.627 28.0156 159.413 27.728 159.128 27.5199C158.844 27.3118 158.493 27.2077 158.075 27.2077C157.64 27.2077 157.277 27.3176 156.987 27.5372C156.699 27.7569 156.483 28.0517 156.338 28.4217C156.196 28.7917 156.125 29.2021 156.125 29.653C156.125 30.1155 156.197 30.5245 156.342 30.88C156.49 31.2327 156.708 31.5102 156.995 31.7125C157.285 31.9119 157.645 32.0117 158.075 32.0117Z" fill="black"/>
<path d="M24.3959 32.8151V26.1244C24.3959 24.8872 24.2651 24 24.0036 23.4628C23.7421 22.9256 23.2028 22.657 22.3856 22.657C21.6991 22.657 21.1516 22.8279 20.743 23.1698C20.3344 23.4953 20.0157 23.9267 19.7869 24.464V32.8151H16.3547V19.9953H19.0024L19.3947 21.7779H19.7134C19.9258 21.5012 20.171 21.2326 20.4488 20.9721C20.7267 20.7116 21.029 20.4837 21.3559 20.2884C21.6991 20.093 22.075 19.9384 22.4836 19.8244C22.9086 19.6942 23.3826 19.6291 23.9056 19.6291C24.7718 19.6291 25.4909 19.8244 26.0629 20.2151C26.6513 20.5895 27.1171 21.2244 27.4603 22.1198C27.9343 21.3384 28.5063 20.7279 29.1764 20.2884C29.8629 19.8488 30.6555 19.6291 31.5545 19.6291C32.339 19.6291 33.0009 19.7186 33.5402 19.8977C34.0959 20.0767 34.5454 20.386 34.8886 20.8256C35.2318 21.2651 35.477 21.8593 35.6241 22.6081C35.7875 23.357 35.8692 24.293 35.8692 25.4163V32.8151H32.437V25.9535C32.437 25.4163 32.4125 24.9442 32.3635 24.5372C32.3144 24.1302 32.2164 23.7884 32.0693 23.5116C31.9222 23.2186 31.7097 23.007 31.4319 22.8767C31.1704 22.7302 30.819 22.657 30.3777 22.657C29.6913 22.657 29.1356 22.836 28.7106 23.1942C28.302 23.536 28.0079 24.0163 27.8281 24.6349V32.8151H24.3959Z" fill="white"/>
<path d="M39.8268 19.9953H43.259V32.8151H39.8268V19.9953ZM39.312 16.7965C39.312 16.2756 39.4999 15.8442 39.8758 15.5023C40.2517 15.1442 40.7829 14.9651 41.4693 14.9651C42.1721 14.9651 42.7278 15.1442 43.1364 15.5023C43.545 15.8605 43.7493 16.2919 43.7493 16.7965C43.7493 17.2686 43.545 17.6756 43.1364 18.0174C42.7278 18.3593 42.1721 18.5302 41.4693 18.5302C40.7829 18.5302 40.2517 18.3593 39.8758 18.0174C39.4999 17.6756 39.312 17.2686 39.312 16.7965Z" fill="white"/>
</svg>
